<?xml version="1.0" encoding="utf-8"?>
<!-- Generator: Adobe Illustrator 27.5.0, SVG Export Plug-In . SVG Version: 6.00 Build 0)  -->
<svg version="1.1" id="Layer_1" xmlns="http://www.w3.org/2000/svg" xmlns:xlink="http://www.w3.org/1999/xlink" x="0px" y="0px"
	 viewBox="0 0 117 110" style="enable-background:new 0 0 117 110;" xml:space="preserve">
<style type="text/css">
	.st0{fill:#00B7E3;}
	.st1{fill:#FFFFFF;}
</style>
<rect x="-0.1" y="-0.1" class="st0" width="116.9" height="109.9"/>
<g>
	<path class="st1" d="M110.2,74.3c-4.7,4.7-8.3,7.8-13,11.2c5.5,3.7,9.6,5.6,18.1,8.8c-4.6,5.2-7,8.9-10.4,15.2
		c-7.6-3.8-12.5-6.9-17.8-11.5c-6.1-5.2-9.6-9-12.9-14.5c0.5,2.6,0.6,4.1,0.6,6.3v5.2c0,11.6-3.7,14.2-20.4,14.2
		c-1.4,0-3.5,0-6.1-0.1c-0.5-5.3-1.3-8.4-3.1-12.8C42,98,42,98,34.8,101.6l-3.3,1.7c-0.7,0.2-0.8,0.3-1.6,0.7l-5.2-11.2
		c-2.1,7.4-3.6,11.1-6.9,16.6c-6.1-7.9-8.5-10.6-13.6-15.2c3.5-7,5.4-14.6,6.8-26.7c1.3-10.7,1.8-25.8,1.8-45.1
		c0-9.3-0.1-10.9-0.6-15.7c4,0.5,7.8,0.6,16.3,0.6h24.9V6.6c0-2.4-0.1-3.8-0.5-5.8h18.7c-0.5,1.7-0.5,3-0.6,6.4h26.6
		c5.2,0,10.9-0.2,14.9-0.7v15.3c-3.2-0.3-5.6-0.5-9.4-0.5H74.7V25H96c4.5,0,6.6-0.1,9.3-0.3c-0.3,2.6-0.5,4.6-0.5,9.1V39h1
		c3.5,0,5.1-0.1,7-0.5v14.9c-2.5-0.3-4.1-0.5-7.4-0.5h-0.7v6.3c0,4.6,0.1,6,0.5,8.3c-2.1-0.2-4.1-0.3-6.4-0.3L110.2,74.3z
		 M29.5,52.1c-0.2,13.1-1.5,25.6-3.9,36.7c4.6-1.5,8.9-3.2,15-6.1c-3.6-2.8-5.4-3.9-10.5-6.9l9-8.5c-3.5,0.1-4.6,0.1-6.6,0.3V55.3
		c2.1,0.2,4.4,0.3,7.8,0.3h17.8v-3.6H29.5z M58.1,36.6H40.6c-2.4,0-4.3,0.1-7.9,0.3V24.7c2.1,0.2,3.9,0.3,7.7,0.3h17.7v-3.6H29.8
		c0,2.5,0,4.5,0,5.9c0,3,0,3-0.1,12.8h28.4V36.6z M54.9,89.8c-1.8,1.5-2.5,1.8-4.3,3c2.6,0.1,2.6,0.1,3.1,0.1c3.9,0,4.4-0.2,4.4-2.5
		V67.3H43.7c4.6,2.6,7.7,4.7,12.7,8.6l-6.6,7.3L54.9,89.8z M88.3,36.6H74.7v3.5h13.6V36.6z M74.7,52.1v3.6h13.6v-3.6H74.7z
		 M78.7,67.3c2.1,3.2,3.7,5.3,6.6,8.3c3.6-2.4,7-5.6,9.1-8.3H78.7z"/>
</g>
</svg>
